USFL
nRows=224
nColumns=2
inDegrees=yes
endheader
time	tib_ant_r	
3.16028	 81.429461	
3.19355	 81.419911	
3.22681	 81.398479	
3.26008	 81.381949	
3.29335	 81.357882	
3.32661	 81.351599	
3.35988	 81.365029	
3.39315	 81.386810	
3.42641	 81.395253	
3.45968	 81.432950	
3.49294	 81.450062	
3.52621	 81.451761	
3.55948	 81.464132	
3.59274	 81.468397	
3.62601	 81.514298	
3.65927	 81.531149	
3.69254	 81.491356	
3.72581	 81.477864	
3.75907	 81.467266	
3.79234	 81.460065	
3.8256	 81.428361	
3.85887	 81.397673	
3.89214	 81.462273	
3.9254	 81.434119	
3.95867	 81.469200	
3.99194	 81.463913	
4.0252	 81.416501	
4.05847	 81.439351	
4.09173	 81.472875	
4.125	 81.467264	
4.15827	 81.404042	
4.19153	 81.322803	
4.2248	 81.312617	
4.25806	 81.143789	
4.29133	 81.140490	
4.3246	 81.044867	
4.35786	 80.974407	
4.39113	 80.974613	
4.4244	 80.984040	
4.45766	 80.969491	
4.49093	 80.906329	
4.52419	 80.860093	
4.55746	 80.826877	
4.59073	 81.075258	
4.62399	 80.882067	
4.65726	 80.974773	
4.69052	 80.733170	
4.72379	 80.578512	
4.75706	 80.700312	
4.79032	 80.461891	
4.82359	 80.279259	
4.85685	 80.288049	
4.89012	 80.020146	
4.92339	 79.936600	
4.95665	 79.834506	
4.98992	 79.734316	
5.02319	 79.737196	
5.05645	 79.682878	
5.08972	 79.816128	
5.12298	 79.789090	
5.15625	 79.738734	
5.18952	 79.861421	
5.22278	 80.147263	
5.25605	 79.860946	
5.28931	 79.989435	
5.32258	 80.360224	
5.35585	 80.384642	
5.38911	 60.417211	
5.42238	 60.089008	
5.45565	 59.786714	
5.48891	 59.779977	
5.52218	 59.503324	
5.55544	 59.447676	
5.58871	 59.393257	
5.62198	 59.192594	
5.65524	 58.999902	
5.68851	 58.579438	
5.72177	 58.432950	
5.75504	 58.423038	
5.78831	 58.260524	
5.82157	 58.178698	
5.85484	 58.203975	
5.8881	 58.116174	
5.92137	 58.187293	
5.95464	 58.093820	
5.9879	 57.961477	
6.02117	 57.901951	
6.05444	 57.842787	
6.0877	 57.770787	
6.12097	 57.737922	
6.15423	 57.727749	
6.1875	 57.710038	
6.22077	 57.592856	
6.25403	 57.522091	
6.2873	 57.373020	
6.32056	 57.334084	
6.35383	 57.301902	
6.3871	 57.156407	
6.42036	 57.114009	
6.45363	 56.994149	
6.4869	 56.913530	
6.52016	 56.958988	
6.55343	 56.976403	
6.58669	 56.979581	
6.61996	 56.922467	
6.65323	 56.858530	
6.68649	 56.786409	
6.71976	 56.754074	
6.75302	 56.697935	
6.78629	 56.745342	
6.81956	 56.861987	
6.85282	 56.857232	
6.88609	 56.862969	
6.91935	 56.792926	
6.95262	 56.753973	
6.98589	 56.672227	
7.01915	 56.550779	
7.05242	 56.405425	
7.08569	 56.415922	
7.11895	 56.317942	
7.15222	 56.367746	
7.18548	 56.453024	
7.21875	 56.462628	
7.25202	 56.515947	
7.28528	 56.562777	
7.31855	 56.518271	
7.35181	 56.570897	
7.38508	 56.581908	
7.41835	 56.550208	
7.45161	 56.543329	
7.48488	 56.587408	
7.51815	 56.565779	
7.55141	 56.535274	
7.58468	 56.493973	
7.61794	 56.493850	
7.65121	 56.469962	
7.68448	 56.483997	
7.71774	 56.445467	
7.75101	 56.460395	
7.78427	 56.452172	
7.81754	 56.482116	
7.85081	 56.545694	
7.88407	 56.556454	
7.91734	 56.559173	
7.9506	 56.533776	
7.98387	 56.492883	
8.01714	 56.494200	
8.0504	 56.540915	
8.08367	 56.567111	
8.11694	 56.625529	
8.1502	 56.591585	
8.18347	 56.596719	
8.21673	 56.692617	
8.25	 56.717839	
8.28327	 56.792792	
8.31653	 56.767786	
8.3498	 56.773132	
8.38306	 56.811879	
8.41633	 56.778217	
8.4496	 56.825990	
8.48286	 56.783990	
8.51613	 56.754297	
8.5494	 56.773774	
8.58266	 56.774801	
8.61593	 56.802375	
8.64919	 56.817957	
8.68246	 56.826851	
8.71573	 56.840744	
8.74899	 56.820304	
8.78226	 56.756507	
8.81552	 56.784966	
8.84879	 56.808365	
8.88206	 56.839105	
8.91532	 56.886139	
8.94859	 56.845103	
8.98185	 56.852309	
9.01512	 56.814478	
9.04839	 56.764537	
9.08165	 56.738267	
9.11492	 56.764165	
9.14819	 56.733985	
9.18145	 56.744416	
9.21472	 56.729335	
9.24798	 56.715301	
9.28125	 56.717615	
9.31452	 56.666087	
9.34778	 56.650827	
9.38105	 56.623686	
9.41431	 56.665945	
9.44758	 56.711776	
9.48085	 56.688607	
9.51411	 56.687453	
9.54738	 56.681025	
9.58065	 56.569004	
9.61391	 56.528537	
9.64718	 56.484782	
9.68044	 56.481047	
9.71371	 56.508231	
9.74698	 56.525795	
9.78024	 56.504249	
9.81351	 56.460575	
9.84677	 56.383310	
9.88004	 56.341765	
9.91331	 56.280461	
9.94657	 56.287494	
9.97984	 56.227695	
10.0131	 56.431249	
10.0464	 56.382657	
10.0796	 56.323542	
10.1129	 56.274816	
10.1462	 56.237220	
10.1794	 56.373950	
10.2127	 56.238061	
10.246	 56.022381	
10.2792	 55.938917	
10.3125	 55.853618	
10.3458	 55.846781	
10.379	 55.528154	
10.4123	 71.293133	
10.4456	 71.152893	
10.4788	 70.560213	
10.5121	 70.177045	
10.5454	 70.265240	
10.5786	 70.344481	
